<svg width="120" height="120" viewBox="0 0 120 120" fill="none" xmlns="http://www.w3.org/2000/svg">
<g clip-path="url(#clip0_9_2)">
<path d="M60 120C27 120 0 93 0 60C0 27 27 0 60 0C93 0 120 27 120 60C120 93 93 120 60 120Z" fill="#6554C0"/>
<path d="M79 94.5002H41C34 94.5002 28.5 89.0002 28.5 82.0002V32.0002C28.5 26.5002 34.5 24.0002 38.5 27.0002L41 29.0002H78.5L81 27.0002C85 24.0002 91 27.0002 91 32.0002V82.0002C91 89.0002 85.5 94.5002 79 94.5002Z" fill="#00C7E5"/>
<path d="M70.5 74.5L62 83C60.5 84.5 58.5 84.5 57.5 83L49 74.5L60 63.5L70.5 74.5Z" fill="#FFAB00"/>
<path d="M42.5 81C53.5457 81 62.5 72.0457 62.5 61C62.5 49.9543 53.5457 41 42.5 41C31.4543 41 22.5 49.9543 22.5 61C22.5 72.0457 31.4543 81 42.5 81Z" fill="white"/>
<path d="M77.5 81C88.5457 81 97.5 72.0457 97.5 61C97.5 49.9543 88.5457 41 77.5 41C66.4543 41 57.5 49.9543 57.5 61C57.5 72.0457 66.4543 81 77.5 81Z" fill="white"/>
<path d="M42.5 73C49.1274 73 54.5 67.6274 54.5 61C54.5 54.3726 49.1274 49 42.5 49C35.8726 49 30.5 54.3726 30.5 61C30.5 67.6274 35.8726 73 42.5 73Z" fill="#79E2F2"/>
<path d="M42.5 65C44.7091 65 46.5 63.2091 46.5 61C46.5 58.7909 44.7091 57 42.5 57C40.2909 57 38.5 58.7909 38.5 61C38.5 63.2091 40.2909 65 42.5 65Z" fill="#2B5184"/>
<path d="M77.5 73C84.1274 73 89.5 67.6274 89.5 61C89.5 54.3726 84.1274 49 77.5 49C70.8726 49 65.5 54.3726 65.5 61C65.5 67.6274 70.8726 73 77.5 73Z" fill="#79E2F2"/>
<path d="M77.5 65C79.7091 65 81.5 63.2091 81.5 61C81.5 58.7909 79.7091 57 77.5 57C75.2909 57 73.5 58.7909 73.5 61C73.5 63.2091 75.2909 65 77.5 65Z" fill="#2B5184"/>
<path d="M41 29C52 38 67.5 38 78.5 29H41Z" fill="#00A3BF"/>
</g>
<defs>
<clipPath id="clip0_9_2">
<rect width="120" height="120" fill="white"/>
</clipPath>
</defs>
</svg>
