<svg xmlns="http://www.w3.org/2000/svg" id="bull" viewBox="0 0 120 120">
<style>
.st1{fill:#0c1f41}.st2{fill:#253858}
</style>
<path d="M60 120C27 120 0 93 0 60S27 0 60 0s60 27 60 60-27 60-60 60z" fill="#ff5630"/>
<path class="st1" d="M111.5 90.5c-2-2-5-3.5-10.5-4-3-.5-5.5-3-5.5-6V68l-35-20.5s-1 0-3-.5c-6 15.5-15 54.5 27 68 11.5-5.5 21-14 27-24.5z"/>
<path class="st2" d="M24.5 108.3C34.5 115.8 47 120 60 120c8.5 0 17-1.5 24.5-5-42-13.5-33-52.5-27-68.5C51 46 36.5 45 29 49c-5.5 3-14.5 10.5-13.5 29.5 1 13.5 4.5 23.3 9 29.8z"/>
<path d="M94 67c0-3-2-5-4.5-5.5-.5-5.5-2.5-12-8.5-13-7.5-1.5-10.5-5.5-12-8-4 2.5-9.5 5-16.5 6.5-11.5 2.5-16 8.5-18 14-3.3 0-5 3-5 6 0 2.5 1.5 4.5 3.5 5.5v1c0 16.5 13.5 29 29 29 16 0 29-12.5 28-28.5v-1.5c2.5-.5 4-3 4-5.5z" fill="#ffe2d9"/>
<circle class="st2" cx="51" cy="66" r="3.5"/>
<circle class="st2" cx="73.5" cy="66" r="3.5"/>
<path class="st2" d="M62.5 90.5c3.5 0 6-2.5 7-5 .5-1-.5-2.5-2-2.5H57c-1 0-2.5 1-2 2.5 1 3 4.5 5 7.5 5z"/>
<path d="M58 74l2-4c.5-1.5 2.5-1.5 3.5 0l2.5 4c1 1.5 0 3-1.5 3H60c-2 0-3-1.5-2-3z" fill="#f5d0c3"/>
<path class="st1" d="M81 26.5c-9.9-1.5-14.2 6.6-12 14 1.5 2.5 4.5 6.5 12 8 6 1 8 7.5 8.5 13 2.5.5 4.3 2 4.5 5.6l1.5.9c-.4-17.1 4.1-38.7-14.5-41.5z"/>
<path class="st2" d="M34.5 61c2-5.5 6.5-11.5 18-14 7-1.5 12.5-4 16.5-6.5 9.4-5.1 13.6-10.6 12-14C74.6 12.9 60.5 14.8 58.5 15c-34 3.5-30 34-30 34L22 62l7.5 6.5V67c0-.3 0-.6.1-.8.1-1.2 1-5.1 4.9-5.2z"/>
</svg>
 